<svg width="65" height="16" viewBox="0 0 65 16" fill="none" xmlns="http://www.w3.org/2000/svg">
<path d="M5.08 0.96C4.26 0.96 3.14 0.979999 1.72 0.999999C1.22 0.999999 0.8 1.44 0.8 1.94V14.08C0.8 14.58 1.22 15 1.72 15H3.08C3.58 15 4 14.58 4 14.08V10.24C4.34 10.28 4.86 10.3 5.56 10.3C7.12 10.3 8.38 9.84 9.32 8.92C10.26 8.02 10.74 6.9 10.74 5.6C10.74 4.26 10.3 3.14 9.4 2.26C8.5 1.4 7.06 0.96 5.08 0.96ZM4 4C4.88 3.98 5.34 3.96 5.4 3.96C6.7 3.96 7.34 4.5 7.34 5.58C7.34 6.8 6.48 7.3 5.46 7.3C5 7.3 4.5 7.26 4 7.2V4ZM11.2164 12.28C11.2164 14.06 12.3764 15.12 14.0564 15.12C15.1764 15.12 15.9564 14.82 16.4164 14.2C16.4164 14.66 16.7564 15 17.1764 15H18.2564C18.6764 15 19.0164 14.66 19.0164 14.24V9.58C19.0164 7.04 17.9364 5.76 15.2764 5.76C14.3364 5.76 13.4164 5.94 12.5564 6.32C12.2364 6.46 12.0764 6.7 12.0764 7.04C12.0764 7.14 12.0964 7.24 12.1364 7.34L12.3964 8C12.5164 8.34 12.7764 8.52 13.1764 8.52C13.2364 8.52 13.3164 8.5 13.4564 8.48C13.9564 8.34 14.4564 8.26 14.9364 8.26C15.7964 8.26 16.2164 8.72 16.2164 9.62V9.8C15.7964 9.46 15.1964 9.3 14.4564 9.3C12.5564 9.3 11.2164 10.34 11.2164 12.28ZM16.2164 12.16C15.9964 12.46 15.6164 12.62 15.0764 12.62C14.5764 12.62 14.2164 12.38 14.2164 11.98C14.2164 11.56 14.5764 11.3 15.0764 11.3C15.5564 11.3 15.9364 11.4 16.2164 11.6V12.16ZM28.7133 6.58C28.5733 6.2 28.3133 6 27.9133 6H26.4333C26.0933 6 25.7333 6.24 25.6333 6.58L24.4733 10.12C24.3733 10.38 24.2933 10.76 24.2133 11.26C24.1133 10.64 24.0533 10.26 24.0133 10.12L23.0733 6.58C22.9533 6.2 22.6933 6 22.3133 6H20.8733C20.3933 6 20.0133 6.4 20.0133 6.86C20.0133 6.92 20.0333 7.02 20.0533 7.12L22.3933 14.42C22.5133 14.8 22.7733 15 23.1733 15H24.5533C24.9333 15 25.2133 14.82 25.3733 14.44L26.7533 10.88C26.8933 10.58 26.9733 10.22 27.0333 9.82C27.1733 10.44 27.2733 10.78 27.2933 10.84L28.6733 14.44C28.8333 14.82 29.1133 15 29.4933 15H31.0333C31.4333 15 31.6933 14.8 31.8133 14.42L34.0733 7.12C34.0933 7.02 34.1133 6.94 34.1133 6.88C34.1133 6.4 33.7333 6 33.2333 6H31.9933C31.5933 6 31.3533 6.2 31.2533 6.6L30.4133 10.06C30.3533 10.3 30.2733 10.7 30.1933 11.28C30.0733 10.66 29.9733 10.28 29.9133 10.1L28.7133 6.58ZM41.1059 8.92C41.2459 9 41.3859 9.04 41.5459 9.04C41.8459 9.04 42.0659 8.9 42.2259 8.64L42.8059 7.68C42.8859 7.56 42.9259 7.44 42.9259 7.3C42.9259 7.02 42.7859 6.78 42.4859 6.6C41.6259 6.04 40.5659 5.76 39.3459 5.76C37.9459 5.76 36.8059 6.22 35.9259 7.12C35.0259 8.04 34.5859 9.16 34.5859 10.5C34.5859 11.92 35.0459 13.08 35.9459 13.94C36.8459 14.8 38.0659 15.24 39.5859 15.24C40.7859 15.24 41.8659 14.86 42.8059 14.08C43.0259 13.92 43.1259 13.7 43.1259 13.44C43.1259 13.26 43.0659 13.1 42.9659 12.96L42.3459 12.14C42.1859 11.92 41.9859 11.82 41.7259 11.82C41.5259 11.82 41.3459 11.88 41.1659 12C40.7059 12.3 40.2259 12.44 39.7659 12.44C38.7459 12.44 37.7859 11.64 37.7859 10.5C37.7859 9.3 38.7059 8.56 39.7259 8.56C40.1659 8.56 40.6259 8.68 41.1059 8.92ZM47.892 6.76C47.892 6.34 47.552 6 47.132 6H45.652C45.232 6 44.892 6.34 44.892 6.76V14.24C44.892 14.66 45.232 15 45.652 15H47.132C47.552 15 47.892 14.66 47.892 14.24V6.76ZM44.632 2.9C44.632 4.04 45.412 4.72 46.452 4.72C47.352 4.72 48.152 4.02 48.152 2.9C48.152 1.88 47.352 1.2 46.452 1.2C45.432 1.2 44.632 1.86 44.632 2.9ZM49.6547 12.28C49.6547 14.06 50.8147 15.12 52.4947 15.12C53.6147 15.12 54.3947 14.82 54.8547 14.2C54.8547 14.66 55.1947 15 55.6147 15H56.6947C57.1147 15 57.4547 14.66 57.4547 14.24V9.58C57.4547 7.04 56.3747 5.76 53.7147 5.76C52.7747 5.76 51.8547 5.94 50.9947 6.32C50.6747 6.46 50.5147 6.7 50.5147 7.04C50.5147 7.14 50.5347 7.24 50.5747 7.34L50.8347 8C50.9547 8.34 51.2147 8.52 51.6147 8.52C51.6747 8.52 51.7547 8.5 51.8947 8.48C52.3947 8.34 52.8947 8.26 53.3747 8.26C54.2347 8.26 54.6547 8.72 54.6547 9.62V9.8C54.2347 9.46 53.6347 9.3 52.8947 9.3C50.9947 9.3 49.6547 10.34 49.6547 12.28ZM54.6547 12.16C54.4347 12.46 54.0547 12.62 53.5147 12.62C53.0147 12.62 52.6547 12.38 52.6547 11.98C52.6547 11.56 53.0147 11.3 53.5147 11.3C53.9947 11.3 54.3747 11.4 54.6547 11.6V12.16ZM59.2516 12.42C59.2516 14.3 60.0316 15.24 61.6116 15.24C62.2916 15.24 63.0116 15.1 63.7516 14.8C64.1116 14.66 64.2916 14.42 64.2916 14.08C64.2916 13.96 64.2716 13.86 64.2516 13.78L63.9716 12.9C63.8716 12.58 63.6516 12.42 63.3516 12.42C63.1716 12.42 62.8716 12.44 62.8116 12.44C62.3516 12.44 62.2516 12.14 62.2516 11.28V1.76C62.2516 1.34 61.9116 0.999999 61.4916 0.999999H60.0116C59.5916 0.999999 59.2516 1.34 59.2516 1.76V12.42Z" fill="#5E40A4"/>
</svg>
