<svg width="39" height="39" viewBox="0 0 39 39" fill="none" xmlns="http://www.w3.org/2000/svg">
<path d="M27.625 14.5389C27.027 14.7989 26.3851 14.9776 25.7107 15.0556C26.3997 14.6494 26.9263 14.0059 27.1765 13.2405C26.5199 13.6231 25.8036 13.8923 25.0575 14.0368C24.7437 13.7078 24.3661 13.4463 23.9479 13.268C23.5297 13.0898 23.0795 12.9986 22.6249 13C20.7838 13 19.292 14.4706 19.292 16.2825C19.292 16.5393 19.3213 16.7895 19.3781 17.03C18.0575 16.9673 16.7645 16.63 15.5816 16.0397C14.3986 15.4493 13.3517 14.6188 12.5076 13.6013C12.2112 14.1003 12.0551 14.6702 12.0559 15.2506C12.0559 16.3881 12.6457 17.3956 13.5395 17.9823C13.0105 17.9657 12.4928 17.8248 12.0282 17.5711V17.6118C12.0333 18.3746 12.3025 19.1122 12.7902 19.6988C13.2779 20.2855 13.9539 20.685 14.703 20.8293C14.2112 20.9593 13.6966 20.9782 13.1966 20.8845C13.4146 21.5408 13.8315 22.1129 14.3894 22.5215C14.9474 22.9301 15.6187 23.1548 16.3101 23.1644C15.1238 24.0785 13.6673 24.5724 12.1696 24.5684C11.9015 24.5684 11.6366 24.5521 11.375 24.5229C12.9033 25.4902 14.6753 26.0026 16.484 26C22.6167 26 25.9691 20.9983 25.9691 16.6595L25.9578 16.2338C26.6115 15.7743 27.1764 15.2001 27.625 14.5389Z" fill="white"/>
<path d="M9.75 6.5C8.88805 6.5 8.0614 6.84241 7.4519 7.4519C6.84241 8.0614 6.5 8.88805 6.5 9.75V29.25C6.5 30.112 6.84241 30.9386 7.4519 31.5481C8.0614 32.1576 8.88805 32.5 9.75 32.5H29.25C30.112 32.5 30.9386 32.1576 31.5481 31.5481C32.1576 30.9386 32.5 30.112 32.5 29.25V9.75C32.5 8.88805 32.1576 8.0614 31.5481 7.4519C30.9386 6.84241 30.112 6.5 29.25 6.5H9.75ZM9.75 3.25H29.25C30.9739 3.25 32.6272 3.93482 33.8462 5.15381C35.0652 6.37279 35.75 8.02609 35.75 9.75V29.25C35.75 30.9739 35.0652 32.6272 33.8462 33.8462C32.6272 35.0652 30.9739 35.75 29.25 35.75H9.75C8.02609 35.75 6.37279 35.0652 5.15381 33.8462C3.93482 32.6272 3.25 30.9739 3.25 29.25V9.75C3.25 8.02609 3.93482 6.37279 5.15381 5.15381C6.37279 3.93482 8.02609 3.25 9.75 3.25Z" fill="white"/>
</svg>
